# xmcd
#
# Track frame offsets: 
#        150
#        10470
#        22445
#        35321
#        47203
#        58644
#        74624
#        86917
#        100587
#        111829
#        122825
#        135064
#
# Disc length: 1955 seconds
#
# Revision: 0
# Processed by: cddbd v1.5.2PL0 Copyright (c) Steve Scherf et al.
# Submitted via: ExactAudioCopy v0.90b2
#
DISCID=a607a10c
DTITLE=John Lee Hooker - Don't Turn Me From Your Door
DYEAR=1963
DGENRE=Blues
TTITLE0=Stuttering Blues
TTITLE1=Wobbling baby
TTITLE2=You lost a good man
TTITLE3=Love me baby
TTITLE4=Misbelieving baby
TTITLE5=Drifting blues
TTITLE6=Don't Turn Me From Your Door
TTITLE7=My baby don't love me
TTITLE8=I ain't got nobody
TTITLE9=Real ral gone
TTITLE10=Guitar lovin man
TTITLE11=Talk about your baby
EXTD=
EXTT0=
EXTT1=
EXTT2=
EXTT3=
EXTT4=
EXTT5=
EXTT6=
EXTT7=
EXTT8=
EXTT9=
EXTT10=
EXTT11=
PLAYORDER=
